<svg xmlns="http://www.w3.org/2000/svg" viewBox="0 0 209.69 237.83"><defs><style>.cls-1{fill:none;stroke:#fff;stroke-miterlimit:10;stroke-width:5px;}.cls-2{fill:#d04141;}</style></defs><title>Checkbox</title><g id="Layer_2" data-name="Layer 2"><g id="Layer_1-2" data-name="Layer 1"><rect class="cls-1" x="2.5" y="116.61" width="113" height="113"/><path class="cls-2" d="M11.85,165a13.32,13.32,0,0,0,2.54,3.6A11,11,0,0,0,11.85,165Z"/><path class="cls-2" d="M14.4,168.67l0,0,0-.05Z"/><path class="cls-2" d="M206.28.2,205.15,1A11.73,11.73,0,0,0,206.28.2Z"/><path class="cls-2" d="M77.07,210.38l-.44-1.25c1.15-3.61,1.52-4,1.83-4.3s.59-.61,1.65-4.15a10.9,10.9,0,0,1,.66-3.13c.2-.61.43-1.25.68-1.91.16-.41.18-.47.26-.66l.22-.49c.6-1.33,1.24-2.61,1.17-3.29.08.06.71-1.55,1-1.33-.39-.71.48-1.72.72-2.8,0-.43-.27.21-.55.42.22-.81.44-1.62.71-2.41.57-.83,1-.92.64.09l3.61-8c.82-1.8,1.65-3.82,2.64-5.87L95,165c1-2.15,2.09-4.29,3.09-6.36s2.12-4,3.06-5.75c1.89-3.56,3.39-6.47,4.14-8.06-.82.57-1.56,2.65-2.59,3,.51-1.84,1.41-2.36,1.41-3.29,1.24-.14,2.27-3.43,3.92-4.12l-.26-.76.79-.62c3.56-7.39.67-1.77,4.44-8,2.15-3.61,2.54-5.73,4.06-7.54-.19.29-1,.87-.56-.13.56.13,1.25-2.66,2-2.81.52-.94,2.44-3.82,1.2-3.24.59-.32,2.52-2.74,1.72-1.06A14.71,14.71,0,0,0,123,114l-.94,1c1.94-2.94,3.51-4.18,4.28-6.44l-1,.89c1.17-1.75,2.14-3.23,3.21-3.48l-1.06,1.9c1-1.43,1.78-2.59,2.5-3.7s1.43-2.15,2.16-3.42l-.65.81c.85-1.68,4.07-6.5,7.34-11.25s6.81-9.28,7.57-10.9l-1.45.85,1.54-2.59c-.23.27.48,2.3.15,2.41,1-1.26,3.15-3.66,5.85-6.69s5.9-6.75,9.38-10.17c1.71-1.73,3.41-3.47,5-5.13l2.39-2.41c.78-.76,1.57-1.47,2.31-2.15,2.95-2.71,5.29-4.82,6.43-5.74,1.94-1.36.91.38,1,.47,2-2.1.51-1.29,2.33-2.9.56-.37.19.42,0,.74.73-.79,1.64-1.25,1.52-1.51-1.15.71-1.18-.18-1.92-.16l2.44-2,.18.42c.54-.44.56-2.06,3.08-3.88,2-1.6,4.12-3.37,6.21-5.11s4.3-3.34,6.4-4.9c.1.26-.68,1.05-1.45,1.85a10.71,10.71,0,0,1,2-1.37c-1.28.4,1.55-1.59.65-1.14A22.54,22.54,0,0,1,205,24a28.2,28.2,0,0,0,4.68-3.65c-.16-.48-1.11-4.94-2-9.44s-1.82-9.06-2.14-9.54A17.77,17.77,0,0,1,207.68,0a9,9,0,0,0-3.09,1.88l.19.63c-2.05,1.71-.72.05-2.81,1.58-.41-.33,1.48-1.8,3.18-3.06-1.59,1.05-3.34,1.83-3.66,2.74-1.57.85-.19-.63-2.07.43-1.17,1-2.52,2.57-4.13,3.34l0-.09A16.45,16.45,0,0,0,191,10.76,19,19,0,0,1,187.1,14l.23-.4c-1.27.62-3.18,2.59-5.34,3.87.63-.35,1.34-.44.2.52-.62.38-1.16.75-1.66,1.11s-.93.75-1.36,1.11A17.36,17.36,0,0,1,176.61,22l-1.21,1.68L171.59,27c-1.54,1.34-3.4,2.85-5.28,4.68l-6.12,5.79c-2.15,2-4.41,4.13-6.51,6.38l-6.33,6.56-3,3.13-2.7,3.06c-3.48,3.91-6.35,7.14-8,9l.2-.34L125,76c-.83,1-1.73,2.05-2.56,3.15l-2.53,3.36c-1.72,2.27-3.47,4.6-5.22,6.92s-3.39,4.74-5,7.1L105,103.38c-1.54,2.2-2.81,4.43-4.06,6.46s-2.35,3.94-3.34,5.63a26.57,26.57,0,0,0-2.54,3.26c-.82,1.2-1.53,2.49-2.24,3.54.88-1.11.94-.52.37.42-3.92,6.63,0,.63-3.7,7.46-.52,1-1.24,2.32-2.13,3.9l-2.85,5.52c-2.1,4.09-4.77,8.76-7,13.6L74,160.26l-1.66,3.36-1.42,3.19c-1.83,4.09-3.34,7.4-4.21,9.2-.24,1.06-.61,2.13-1,3.24s-.75,2.25-1.16,3.37-.82,2.25-1.21,3.34c-.19.54-.37,1.08-.53,1.61l-.24.79a.62.62,0,0,0,0,.24l-.13-.15a12.31,12.31,0,0,1-.64,1.92c-.32.87-.7,1.85-1,2.63a13.6,13.6,0,0,0-1.66-2.22l.07.26a.85.85,0,0,1-.56-.77,4.71,4.71,0,0,0-.14-1.08.74.74,0,0,1-.86.43,1.54,1.54,0,0,1-.5-.2c-.4-.39-.76-.77-1-1l.17-.07c-1.5-1.65-5.21-5.12-7.65-7.86l.43-.17c-2.31-2.06-5.89-6.56-7.37-8.19C38.63,168.15,34,161.83,29,157.29l-2-4-.53-.38A33,33,0,0,0,19,156.65c-3.5,2.45-6.53,6-4.77,10.23l-.42.2L15,168.29c1.22,1.65,2.24,2,1.82,2.19L15,168.39c1.3,1.59.16.7-.56.3a17.28,17.28,0,0,1,1.44,1.89c.4.18-.07-.34-.21-.64a13.42,13.42,0,0,1,3,2.69c1.39,1.58-.43.58,1.17,2.43C24,180,28,184.9,32,189.87L46.33,208c.26.62-.17.07-.68-.45,2.47,3,4.74,6,7,8.86s4.38,5.78,6.54,8.53a25.83,25.83,0,0,1,1.92,3.68c-.14-.3.62.63,2,2.33s3.17,4.17,5.28,6.93c1.8-5.7,4-12.5,5.67-17.92.86-2.68,1.62-5,2.16-6.72S77,210.46,77.07,210.38Z"/></g></g></svg>
