<svg xmlns="http://www.w3.org/2000/svg" viewBox="0 0 195.76 203.38"><defs><style>.cls-1{fill:#d04141;}</style></defs><title>Asset 7</title><g id="Layer_2" data-name="Layer 2"><g id="Slide_5" data-name="Slide 5"><path class="cls-1" d="M124.77,37.29c-1.74-1-5-1.93-8.17-2.7,1.17.46,2.37,1,3.7,1.38.67.22,1.37.43,2.12.64S123.94,37.06,124.77,37.29Z"/><path class="cls-1" d="M116.54,34.56h-.05l.11,0Z"/><path class="cls-1" d="M70.63,14.28l2.25.42C72.13,14.54,71.37,14.38,70.63,14.28Z"/><path class="cls-1" d="M.39,115.27l.85.45c.09,1,.21,1.86.3,2.51s.13,1.13.15,1.5a4.37,4.37,0,0,1-.08,1.33c-.11.56-.18,1,.79,4.79a11.81,11.81,0,0,1,1.37,3.05c.41,1.31,1,2.77,1.43,4.27,1,3,2.11,5.82,3,6.85a16.08,16.08,0,0,0,.64,1.66c.34.82.69,1.62.47,1.6a6,6,0,0,1,1.53,2.14,27.69,27.69,0,0,0,1.79,3c.58.63-.17-.62-.34-1.25l1.48,2.19,1.57,2.12c1,1.81,1,2.45-.33.63a92,92,0,0,0,11.9,14.24,114.79,114.79,0,0,0,10.21,8.69A117.57,117.57,0,0,0,49.18,183a142.62,142.62,0,0,0,12.74,6.46c4.22,1.87,8.31,3.44,12.08,4.78a168.42,168.42,0,0,0,17.14,5c-1.63-.87-5.83-1.69-7.16-2.86,3.59.62,5.12,1.57,6.79,1.57,1.09,1.42,7.79,2.13,10.39,3.68l1.16-.41,1.78.68c4.11.51,6.45.64,7.82.74s1.8.09,2.15.14.66.1,1.8.22,3.12.32,6.9.38a62.79,62.79,0,0,0,10.38-1l3.85-.69c1.22-.25,2.4-.41,3.64-.59-.73.16-2.73.1-.49-.45.24.23,1.74-.16,3.3-.61a14.91,14.91,0,0,1,3.82-.91l2.32-.73c.92-.32,1.91-.68,2.76-1,1.68-.72,2.76-1.33,1.46-1.22,1.32,0,7.43-2.67,4-.74a33.57,33.57,0,0,0,5.42-2.74c-.89.41-1.77.82-2.67,1.17a87.86,87.86,0,0,0,8.18-4.7,30.22,30.22,0,0,0,3.06-2.25,23.44,23.44,0,0,0,2.68-2.6c-.8.54-1.57,1.11-2.38,1.62,3.6-2.91,6.18-5.84,8-6.72-1,1.23-2.07,2.5-3.21,3.65.72-.67,1.38-1.33,2-2s1.21-1.27,1.73-1.92c1-1.28,2-2.48,2.87-3.66s1.59-2.45,2.36-3.7,1.39-2.61,2.11-4l-1.14,2a86.28,86.28,0,0,0,4.41-10.44A84.74,84.74,0,0,0,195,142.57c1.51-11.68.5-22.87-.15-26.14l-.4,3.08c-.26-1.89-.51-3.78-.81-5.65.07.65,2,2.62,1.86,3.2-.15-3.07-.67-9.35-1.87-17a113.63,113.63,0,0,0-7.06-26.51,75.77,75.77,0,0,0-7.07-13.07,104.68,104.68,0,0,0-8.05-10.33c-2.57-3-5-5.38-7-7.46s-3.62-3.55-4.6-4.57c-3.14-3.33,0-1.24.11-1.26-4.3-3.56-2.19-1.15-5.71-4.31-.91-.93.48-.16,1.09.25-1.59-1.34-3-2.64-3.29-2.55,1.89,1.78.59,1.63,1.14,2.67l-4.66-3.84.48-.18a14.87,14.87,0,0,0-2.7-1.35,31.22,31.22,0,0,1-5.39-3.45A169.23,169.23,0,0,0,114.28,8.55c.26-.17,2.24.58,4.22,1.35a41.28,41.28,0,0,1-4.15-2.11c2,1.46-4-1.51-2.32-.52a54.86,54.86,0,0,1-5.57-1.84c-1.88-.74-3.86-1.4-5.77-2.15S96.86,1.9,95,1.31C94.11,1,93.22.76,92.36.52S90.64.14,89.84,0c-.21.2-1.44,1.06-3.13,2.27L83.9,4.32c-1,.78-2.07,1.61-3.1,2.44-2.08,1.67-4.06,3.34-5.53,4.71a14.14,14.14,0,0,0-2.51,2.71c-1.76-.37-3.51-.74-4-.94a22.81,22.81,0,0,0,5.71,1.39l.46-.54c4.26.81.9.6,5,1.55,0,.27-.88.21-2.24,0s-3.12-.65-4.8-.92c1.5.3,3,.77,4.22,1.12a8.24,8.24,0,0,0,3,.42c2.73.94-.46.5,2.81,1.65,1.2.27,2.63.48,4.07.82a26.17,26.17,0,0,1,4.2,1.39l-.08.07c6.3,2.79,10.21,2.95,15.73,6.12l-.68-.14c.94.63,2.47,1.25,4.15,2.1a53.72,53.72,0,0,1,5.25,2.89,3.11,3.11,0,0,1-.92-.83c0-.13.35-.08,1.42.5C118,32.12,119.69,33,121.21,34a47.43,47.43,0,0,1,4.22,2.9l3,1.42a160.82,160.82,0,0,1,15.46,12c3.21,2.78,6.54,6,9.88,9.45a94.5,94.5,0,0,1,9.17,10.89,54,54,0,0,1,3.54,5.7,57.44,57.44,0,0,1,2.81,6A84.09,84.09,0,0,1,173,94.74c.9,4.07,1.54,7.91,2,11.27s.77,6.12.94,8.15l-.14-.62c.34,3.09.51,6.55.61,10.31A108.07,108.07,0,0,1,176,135.7c-.9,8.16-3,16.77-7.29,23.78a42.75,42.75,0,0,1-3.5,5,34.55,34.55,0,0,1-4.11,4.35,46.12,46.12,0,0,1-9.79,6.71,62.07,62.07,0,0,1-20.17,6.13c-3.75-.09-8.9.15-12.88-.28,2.19.32,1.43.65-.31.52-3-.21-4.62-.41-5.47-.47s-1,0-1.08,0-.25.1-1.13,0a55.06,55.06,0,0,1-5.63-.75A149.16,149.16,0,0,1,64,167.24a97,97,0,0,1-20-13.56A67.86,67.86,0,0,1,33.55,142a40.35,40.35,0,0,1-6-8.77c-1.71-3.25-3.06-6.61-4.28-9.54l.37.55c-.34-.79-.67-2.08-1.18-3.72-.19-.83-.41-1.75-.63-2.74s-.35-2.08-.55-3.22a46,46,0,0,1,.52-15.53,51,51,0,0,1,5.63-14.86c.14-.26.28-.52.41-.78l.47-.73c.3-.48.59-1,.88-1.4s.54-.9.83-1.31l.84-1.16,1.42-2,1.14-1.44-.76.76a20.61,20.61,0,0,1,4.19-4.69c.5-.44,1-.76,1.68-1.23S39.88,69.13,41,68.3c-.55-.08.26-1.15,1.42-2.42a21.43,21.43,0,0,1,2-1.83c.68-.57,1.3-1.09,1.77-1.43l0,.19c.72-.49,1.64-1.17,2.71-2s2.34-1.54,3.65-2.42,2.78-1.59,4.23-2.33l2.2-1a17.88,17.88,0,0,1,2.12-.87l-.07.49a45.73,45.73,0,0,1,8.88-2.92c.83-.18,1.63-.4,2.43-.53l2.27-.39c1.43-.28,2.68-.39,3.56-.52A93.15,93.15,0,0,1,93,50.19c5.57.33,11.47,1.08,17,1.87l3.37,1.35,3.32,1.47c.35,0,.7.07,1,.14,0,0,.94-.73,2.17-1.92a25.2,25.2,0,0,0,4-4.7,8.13,8.13,0,0,0,1.39-6.06C124.69,40.26,123,38,119,36.26l.36-.36c-1.08-.26-2.17-.5-3.27-.7-3.88-1.07-5.82-.81-5.47-1.21,1.81.3,3.6.71,5.39,1.1-3.92-1-1.12-.61.45-.53-1.65-.38-3.24-.81-4.55-1.15-.82,0,.55.27,1.15.49-2.19-.23-5.23-.37-7.84-.88-4.13-.56-.17-.8-5-1.32a109.25,109.25,0,0,0-38.68,2.61,87.75,87.75,0,0,0-18.68,7.15A82.22,82.22,0,0,0,26.1,53.14c-.57.3,0-.23.51-.8a82,82,0,0,0-15,17.87,13,13,0,0,1-2.33,2.51c.26-.22-1,2-2.66,5.57A80.14,80.14,0,0,0,1.77,92.46,74.46,74.46,0,0,0,0,107.9c.06,2.14.09,3.95.2,5.23S.39,115.18.39,115.27Z"/></g></g></svg>