<svg xmlns="http://www.w3.org/2000/svg" viewBox="0 0 1163.57 137.09"><defs><style>.cls-1{fill:#fff;}.cls-1,.cls-2{stroke:#000;stroke-miterlimit:10;stroke-width:2px;}</style></defs><title>Pen Key by PageKey Solutions</title><g id="Layer_2" data-name="Layer 2"><g id="Slide_1" data-name="Slide 1"><g id="Sharpie"><polygon id="Pen" class="cls-1" points="463.07 2.48 463.07 105.03 944.25 106.22 944.25 2.48 463.07 2.48"/><path id="Cap" class="cls-2" d="M452.68,1V105H158.62s-94.91-9-103.82-15v25.21s2.49,7,7.79,7H347.92s7.88-1.66,9.29-4.31c14.43-12.88,46.12,3.32,15.1,18.25H43.19S33,133.85,33,125.88V85.49S14,74.21,7,72.22C-.44,59.53-1.19,41.28,6,36.89,18.8,31.83,53.3,18.64,53.3,18.64l20.57-3.82S151.26,2.46,162.13,4l40.11-3Z"/><path id="Key" class="cls-2" d="M1143.26,2.49H945.58V106.22l38.77.09S1017,64.18,1020,76.22s17.82,6,20.79,0,11.88,0,14.85,6,14.85,0,20.79-6,19.31,8.27,19.31,8.27h36.38l30.45-30.84V22.05ZM1127.76,37H984.37c-11.66,0-12.54-16.7,0-16.7h143.39C1141.24,20.25,1141.17,37,1127.76,37Z"/></g></g></g></svg>
