<svg xmlns="http://www.w3.org/2000/svg" viewBox="0 0 1161.57 283.13"><defs><style>.cls-1,.cls-2{font-size:60px;}.cls-1,.cls-2,.cls-3{fill:#fff;}.cls-1{font-family:IBMPlexMono, IBM Plex Mono;}.cls-2{font-family:IBMPlexMono-Bold, IBM Plex Mono;font-weight:700;}</style></defs><title>Asset 3</title><g id="Layer_2" data-name="Layer 2"><g id="Slide_1" data-name="Slide 1"><g id="Creativity..."><text class="cls-1" transform="translate(0 50.94)">Creativity</text><text class="cls-1" transform="translate(472.79 167.68)">Energy</text><text class="cls-2" transform="translate(909.57 266.99)">Results</text><g id="C_to_E" data-name="C to E"><path class="cls-3" d="M182.13,99.31a10.71,10.71,0,0,0-.1,3.94A9,9,0,0,0,182.13,99.31Z"/><path class="cls-3" d="M182,103.28v0Z"/><path class="cls-3" d="M434.84,147.26l-1.2.05A6.85,6.85,0,0,0,434.84,147.26Z"/><path class="cls-3" d="M221.78,166.84l.26-.79c3.48.15,1,1,4.19.91,1.31-1.07,5.33.37,6.47-.18,0,.09,1.54.19,1.43.54.51-.59,1.62-.07,2.62-.18.37-.16-.25-.2-.51-.39l2.28-.12c.88.23,1.08.6.11.63,5.93.52,34.44,2.16,40.86,2-.81-.49-2.8-.24-3.52-1,1.7-.35,2.48.22,3.24-.19.62,1.11,3.71.38,5,1.51l.51-.6.83.4c7.46-.42,1.71-.26,8.3.06,3.83,0,5.66-.79,7.78-.43-.32,0-1.15-.41-.16-.54.16.55,2.65-.33,3.12.23,1-.05,4.1.09,3.06-.67.52.38,3.32.59,1.65.87a10.89,10.89,0,0,0,2.54,0l-1.21-.23c3.19,0,4.92.57,7-.06l-1.17-.32c1.91,0,3.5,0,4.24.71l-2,.19a50.68,50.68,0,0,0,7.71-.32l-.94,0c3.38-.65,21-1,24.06-1.92l-1.42-.58,2.67-.46c-.32,0-1.3,1.83-1.57,1.64,5.71.05,35.37-.28,40.64,0,2.13.31.38.9.36,1,2.59-.22,1.11-.61,3.31-.56.6.1-.12.44-.46.52,1-.07,1.86.13,1.93-.14-1.2-.2-.69-.9-1.21-1.36l2.83,0-.12.45c.63,0,1.59-1.23,4.37-1,4.69.17,9.78,0,14.49,0-.07.26-1.06.43-2.05.6a8.29,8.29,0,0,1,2.18.11c-1.14-.46,2-.33,1.08-.52,3.44-1.12,7.92-.18,10.95-1,.27-1,6.27-16.84,6.24-18a13.28,13.28,0,0,1,2.17.11,6.41,6.41,0,0,0-3.08-.21l-.16.63c-2.26.25-.54-.36-2.74-.29-.13-.51,1.9-.64,3.69-.72-1.61,0-3.22-.38-3.87.18-1.52-.18.16-.62-1.67-.81-1.29.17-3,.69-4.48.41l0-.09c-3.63-.48-5.54.83-8.85.35l.35-.17c-1.17-.28-3.47.14-5.59-.16.6.1,1.13.46-.14.54-2.43-.31-4.08,0-5.86-.36l-1.7.51c-4.23,0-14.7.18-25.17.34s-20.94.28-25.19.28l.33-.08c-12.95.17-39.52-.33-52.91,0-2.06-.55-4.92-.51-7.07-.7,1.19.24.77.57-.16.53-6.58-.23-.46.33-7.12.34-7.67.29-37-1.3-43.74-2.06-3.68.58-8.22-.18-11.81.11l.37-.15c-1,0-3-.07-5.69-.21-1.36-.08-2.76-.15-4.12-.28s-2.76-.27-4-.5a25.79,25.79,0,0,1-3.47-.82,14.52,14.52,0,0,1-2.39-1,10.64,10.64,0,0,1-1.86-1.36l.06.2c-.58-.34-.66-.62-.62-.94a3.54,3.54,0,0,0,.05-1.4c-.36.22-.78,0-1.15-.61a6.38,6.38,0,0,1-.77-1.95h.18c-.23-.88-.61-2.31-1-3.89s-.87-3.53-1.13-5.1l.45.06c-.81-2.57-1.25-7.54-1.54-9.42-.38-4.35-.48-11.12-1.8-16.82l.77-3.9-.2-.53s-15.91-4.06-18.15,4l-.46-.07.26,1.5c0,1.84.63,2.61.18,2.55l-.27-2.49c.11,1.84-.29.6-.63-.07a12.9,12.9,0,0,1,0,2.13c.22.34.15-.28.21-.58a11.31,11.31,0,0,1,.82,3.49c.2,1.87-.69.21-.46,2.39.56,5.76,1.11,11.43,1.67,17.11.28,2.84.58,5.68.91,8.54a49.86,49.86,0,0,0,2.1,10.71c0,.46-.19,0-.44-.5A28.05,28.05,0,0,0,191,154.4a23.54,23.54,0,0,0,6.34,5.83A8,8,0,0,1,199,162c-.15-.2,1.42.67,3.77,1.55a43.2,43.2,0,0,0,8.27,2.18,73.64,73.64,0,0,0,7.49.85l2.35.16A7.45,7.45,0,0,1,221.78,166.84Z"/></g><g id="E_to_R" data-name="E to R"><path class="cls-3" d="M726.38,167a12.28,12.28,0,0,0,4.13-.87A10.36,10.36,0,0,0,726.38,167Z"/><path class="cls-3" d="M730.54,166.13l0,0-.06,0Z"/><path class="cls-3" d="M1037.11,191.41a25.58,25.58,0,0,0,1.93-1.87C1038.42,190.2,1037.73,190.8,1037.11,191.41Z"/><path class="cls-3" d="M808.68,161.66l.31-.78c4,.29,1.1,1,4.83,1.08,1.55-1,6.19.61,7.54.12,0,.08,1.8.27,1.65.61.61-.56,1.91,0,3.08-.05.43-.13-.29-.21-.59-.42h2.67c1,.28,1.26.66.12.64,3.47.37,13.65,1.42,24,2.1s20.66,1.13,24.47,1.06c-1-.49-3.32-.23-4.19-1,2-.33,3,.23,3.85-.18.74,1.11,4.4.37,5.9,1.5l.59-.6,1,.4c8.86-.53,2-.28,9.87,0,4.54-.08,6.69-.93,9.21-.61-.37,0-1.37-.39-.2-.54.2.54,3.12-.42,3.7.12,1.15-.08,4.87-.05,3.6-.77.64.36,4,.48,2,.82a16,16,0,0,0,3-.09l-1.45-.18c3.79-.19,5.86.34,8.31-.38l-1.4-.26c2.26-.09,4.14-.23,5.06.48l-2.32.3a67.84,67.84,0,0,0,9.13-.76l-1.12,0c2-.46,8.17-1,14.3-1.72s12.21-1.5,14-2.07l-1.73-.45,3.11-.69c-.37,0-1.38,1.94-1.71,1.78,3.37-.26,13.8-1.17,24.15-2.29L991,158c2.4-.26,4.65-.49,6.62-.62a49.09,49.09,0,0,1,8.2-.06c2.1.41.34.9.32,1,2.51,0,1.15-.58,3.23-.3.56.16-.17.43-.49.47.45,0,.89.1,1.21.14s.54.08.59,0c-1.06-.39-.51-1-.94-1.51.46.05.9.14,1.34.22s.89.14,1.3.26l-.2.41c.53.15,1.76-.94,4.07.1a22.41,22.41,0,0,1,5.15,2.79,13.31,13.31,0,0,1,3.44,4.27c-.26.07-.77-.53-1.32-1.05a3.93,3.93,0,0,1,.74,1.47c0-1,1,1.21.84.52a6.72,6.72,0,0,1,1.81,4c.21,1.46.1,2.74.27,3.74a16.7,16.7,0,0,1,2.76,1.52,18,18,0,0,1,4.54,4.36,20.64,20.64,0,0,1,3,6.11c.61,1.93.82,3.39,1,3.59a20.22,20.22,0,0,1-2.16,1.93,12.87,12.87,0,0,1-1.5,1,8.07,8.07,0,0,0,2.32-1.46,14.65,14.65,0,0,0,2.76-2.92l-.26-.68c.73-1,1-1.57,1.3-1.9a2,2,0,0,1,.48-.51,2,2,0,0,0,.46-.49,10.55,10.55,0,0,0,1-2c.27,0,.06,1-.64,2.43a20.09,20.09,0,0,1-3.27,4.71,25.48,25.48,0,0,0,3.25-4,16.22,16.22,0,0,0,1-1.82,5,5,0,0,0,.35-1.42c.7-1.46.77-1.34.93-1.28s.38,0,1-1.81a25.37,25.37,0,0,0,.45-4.48c0-1.54,0-3.09.07-4.49l.1,0a19.46,19.46,0,0,0-1.63-8.11c-.92-2.22-2-4.23-3.16-6.87l.46.46a16.89,16.89,0,0,0-2.23-3.7c-1-1.41-2.34-2.92-3.63-4.4.71.87,1.11,1.79-.56.19a22.57,22.57,0,0,0-4.56-3.83l-1.11-.7-1-.56c-.63-.37-1.24-.77-1.86-1.18l-2.74-.66a48,48,0,0,0-15.16-3.23,108.31,108.31,0,0,0-19.48,1c-6.17.73-12.14,1.44-17.33,2s-9.44.89-11.9,1.12l.38-.11c-7.5.68-19,1.46-30.54,2s-23.19.84-31,1.18c-2.41-.5-5.74-.37-8.25-.55,1.4.22.91.56-.18.53-7.66-.17-.52.35-8.28.42-4.47.13-15.25-.15-25.89-.84s-21.1-1.71-25.07-2.24c-4.33.38-9.65-.61-13.91-.49l.43-.13c-2.26-.06-9.85-.74-17.6-1.31s-15.71-.86-18.44-.7l.73.11c-4.75.42-4.09-.4-7.87-.55.51.81-3.56,1.32-5.11,1.46l0-.18c-1.17.13-3.09.45-5.18.77s-4.39.78-6.32,1l.1-.45c-.8.19-1.78.36-2.83.51s-2.2.37-3.31.52c-2.22.33-4.33.54-5.49.82-5.33.67-13.75,1.79-20.56,4.64-1.63.11-3.25.29-4.9.44l-.62.36s-.11,1.06-.1,2.63a26.94,26.94,0,0,0,.66,5.73c1,4.16,3.26,8.22,7.69,8.33l0,.46,1.52-.62a17.25,17.25,0,0,0,2-.7c.43-.18.61-.25.61,0-.87.24-1.74.47-2.58.79,1.89-.57.67.13.06.63.39-.12.77-.24,1.14-.34a9.42,9.42,0,0,1,1.08-.16c.32-.28-.33-.1-.66-.1a13.28,13.28,0,0,1,3.57-1.46c2-.54.32.64,2.6,0,3.06-.61,6.05-1.35,9.15-1.74,1.54-.21,3-.52,4.61-.66l4.65-.5c6.25-.52,12.55-.91,19.11-1,.3.17-.05.17-.43.27,1-.07,1.94-.13,2.88-.16l2.78,0,5.44-.09a3.56,3.56,0,0,1,1.57.7c-.3-.19,4.72-.16,9.91.09,2.59.11,5.24.3,7.24.42S808.6,161.64,808.68,161.66Z"/></g></g></g></g></svg>